<svg width="63" height="50" viewBox="0 0 63 50" fill="none" xmlns="http://www.w3.org/2000/svg">
<path fill-rule="evenodd" clip-rule="evenodd" d="M13.0368 0C9.45395 0 6.80475 3.13562 6.92505 6.53277C7.0375 9.80177 6.89105 14.0305 5.82666 17.48C4.75443 20.9373 2.94995 23.1288 0 23.4113V26.5887C2.94995 26.8686 4.75705 29.0601 5.82405 32.52C6.89105 35.9695 7.0375 40.1982 6.92243 43.4646C6.80475 46.8644 9.45395 50 13.0368 50H49.7332C53.3161 50 55.9653 46.8644 55.845 43.4646C55.7325 40.1982 55.879 35.9695 56.9434 32.52C58.013 29.0601 59.8148 26.8712 62.7648 26.5887V23.4113C59.8148 23.1288 58.013 20.9373 56.9434 17.48C55.879 14.0279 55.7325 9.79915 55.845 6.53277C55.9653 3.13301 53.3135 0 49.7332 0H13.0368ZM42.5493 30.7783C42.5493 35.4595 39.058 38.297 33.2653 38.297H23.4034C23.1211 38.297 22.8504 38.1848 22.6508 37.9852C22.4512 37.7856 22.339 37.5149 22.339 37.2326V12.7648C22.3397 12.483 22.4522 12.2129 22.6517 12.0138C22.8512 11.8148 23.1216 11.703 23.4034 11.703H33.2104C38.0407 11.703 41.2129 14.3182 41.2129 18.3378C41.2129 21.157 39.0789 23.6806 36.3617 24.1252V24.2717C40.0622 24.677 42.5519 27.2399 42.5519 30.7783H42.5493ZM32.1931 15.074H26.5704V23.019H31.3066C34.9678 23.019 36.9868 21.544 36.9868 18.9079C36.9868 16.4391 35.2503 15.074 32.1931 15.074ZM26.5704 26.1703V34.9234H32.4023C36.2127 34.9234 38.2342 33.3935 38.2342 30.5194C38.2342 27.6427 36.1577 26.1703 32.1565 26.1703H26.5704Z" fill="white"/>
</svg>
