<svg width="70" height="80" viewBox="0 0 70 80" fill="none" xmlns="http://www.w3.org/2000/svg">
<path d="M55 50C51.4675 50 48.2208 51.2217 45.6578 53.2648L29.6444 43.2564C30.1186 41.1113 30.1186 38.8885 29.6444 36.7434L45.6578 26.735C48.2208 28.7783 51.4675 30 55 30C63.2842 30 70 23.2842 70 15C70 6.71578 63.2842 0 55 0C46.7158 0 40 6.71578 40 15C40 16.1184 40.1234 17.2078 40.3556 18.2564L24.3422 28.2648C21.7792 26.2217 18.5325 25 15 25C6.71578 25 0 31.7158 0 40C0 48.2842 6.71578 55 15 55C18.5325 55 21.7792 53.7783 24.3422 51.7352L40.3556 61.7436C40.1189 62.8129 39.9997 63.9048 40 65C40 73.2842 46.7158 80 55 80C63.2842 80 70 73.2842 70 65C70 56.7158 63.2842 50 55 50Z" fill="white"/>
</svg>
