<svg width="45" height="50" viewBox="0 0 45 50" fill="none" xmlns="http://www.w3.org/2000/svg">
<path d="M40.3458 44.6312L44.3312 0H0L0.0520833 0.579167L3.97917 44.6375L4.0125 45.0042L21.9979 50H22.2812L40.3083 45L40.3417 44.6333L40.3458 44.6312ZM22.2042 9.74792H35.0854L34.6979 14.2479L21.9896 19.8979L22.2021 20.9146H34.1271L32.7542 36.6458L22.1583 39.5833L11.5667 36.65L10.9 29.1167H15.2604L15.6104 32.9354L15.6437 33.3063L22.0708 35.0146H22.3479L28.7042 33.2479L28.7354 32.8792L29.3354 25.825L29.3833 25.25H10.5354L10.1396 20.7229L23.2833 15.0958L23.075 14.075H9.575L9.18958 9.74167H22.1896L22.2042 9.74792Z" fill="white"/>
</svg>
