<svg width="69" height="50" viewBox="0 0 69 50" fill="none" xmlns="http://www.w3.org/2000/svg">
<path d="M13.8427 40.2694C11.8808 40.2694 10.0977 38.653 10.0977 36.6826C10.0977 34.7121 11.6999 33.0849 13.8427 33.0849C15.9962 33.0849 17.6135 34.7035 17.6135 36.6826C17.6135 38.653 15.8196 40.2694 13.8556 40.2694H13.8427ZM59.8188 20.6843C59.4247 17.8101 57.6652 15.4682 55.3415 13.6802L54.4349 12.9568L53.7048 13.8497C52.2921 15.4682 51.7214 18.3424 51.898 20.491C52.0681 22.1225 52.5807 23.7389 53.4916 24.9946C52.7508 25.3791 51.8549 25.718 51.1572 26.0917C49.5205 26.6326 47.9269 26.8151 46.3354 26.8151H0.281788L0.10089 27.8775C-0.247452 31.3819 0.309739 34.9176 1.7182 38.1403L2.42457 39.3982V39.5655C6.73166 46.763 14.3918 50 22.7476 50C38.8109 50 51.9777 42.9959 58.223 27.8905C62.3169 28.0708 66.4474 26.9954 68.3856 23.035L68.9024 22.1421L68.0496 21.5968C65.7173 20.1608 62.5301 19.9696 59.864 20.693L59.8059 20.7039L59.8188 20.6843ZM36.8253 17.8101H29.85V24.8229H36.8253V17.8101ZM36.8253 8.99631H29.85V16.0091H36.8253V8.99631ZM36.8253 0H29.85V7.01499H36.8253V0ZM45.3491 17.8101H38.4168V24.8229H45.3706V17.8101H45.3491ZM19.5194 17.8101H12.5872V24.8229H19.541V17.8101H19.5194ZM28.2111 17.8101H21.3263V24.8229H28.2585V17.8101H28.2111ZM10.9052 17.8101H4.01604V24.8229H10.9935V17.8101H10.9052ZM28.2111 8.99631H21.3263V16.0091H28.2585V9.005L28.2111 8.99631ZM19.4721 8.99631H12.5979V16.0091H19.5302V9.005L19.485 8.99631H19.4721Z" fill="white"/>
</svg>
