<svg width="50" height="50" viewBox="0 0 50 50" fill="none" xmlns="http://www.w3.org/2000/svg">
<path d="M48.4577 22.7684L26.8896 0.945499C26.5943 0.64579 26.2434 0.408003 25.8571 0.245759C25.4708 0.083514 25.0567 0 24.6385 0C24.2203 0 23.8062 0.083514 23.4199 0.245759C23.0336 0.408003 22.6827 0.64579 22.3874 0.945499L17.9176 5.47754L23.6005 11.2219C24.2681 10.9927 24.9858 10.9574 25.6721 11.12C26.3585 11.2827 26.9861 11.6367 27.4838 12.142C28.5457 13.2168 28.8421 14.7619 28.3929 16.096L33.8598 21.6373C34.5296 21.4012 35.2516 21.3615 35.9428 21.5226C36.6339 21.6837 37.266 22.0392 37.7662 22.5481C39.2541 24.0447 39.2541 26.4693 37.7662 27.9675C37.4154 28.3232 36.9988 28.6055 36.54 28.7981C36.0813 28.9907 35.5896 29.0898 35.093 29.0898C34.5964 29.0898 34.1047 28.9907 33.646 28.7981C33.1872 28.6055 32.7706 28.3232 32.4198 27.9675C31.8929 27.4339 31.5328 26.7554 31.384 26.0162C31.2353 25.2771 31.3045 24.51 31.5832 23.8104L26.4621 18.6519V32.248C26.8232 32.4276 27.169 32.6714 27.4669 32.9729C28.9378 34.4789 28.9378 36.8941 27.4669 38.3923C26.7538 39.1111 25.7884 39.5147 24.782 39.5147C23.7757 39.5147 22.8103 39.1111 22.0972 38.3923C21.656 37.9455 21.3307 37.3953 21.1503 36.7905C20.97 36.1858 20.9401 35.5453 21.0634 34.926C21.1866 34.3067 21.4592 33.7279 21.8569 33.2411C22.2546 32.7542 22.765 32.3744 23.3428 32.1355V18.4097C22.8819 18.2116 22.462 17.9276 22.1049 17.5724C21.5738 17.0362 21.2128 16.3518 21.0682 15.6068C20.9236 14.8617 21.0019 14.09 21.2931 13.3903L15.7135 7.71154L0.922738 22.6746C0.331452 23.282 0 24.1004 0 24.9531C0 25.8058 0.331452 26.6243 0.922738 27.2317L22.4908 49.0545C22.7861 49.3542 23.137 49.592 23.5233 49.7542C23.9096 49.9165 24.3237 50 24.7419 50C25.1601 50 25.5742 49.9165 25.9605 49.7542C26.3468 49.592 26.6977 49.3542 26.993 49.0545L48.4561 27.3301C48.7522 27.0311 48.9872 26.676 49.1474 26.285C49.3077 25.894 49.3902 25.4749 49.3902 25.0516C49.3902 24.6282 49.3077 24.2091 49.1474 23.8181C48.9872 23.4271 48.7522 23.072 48.4561 22.773L48.4577 22.7684Z" fill="white"/>
</svg>
