<svg width="60" height="61" viewBox="0 0 60 61" fill="none" xmlns="http://www.w3.org/2000/svg">
<path d="M59.8068 17.7388C59.7731 15.2153 59.3008 12.7169 58.4107 10.3554C57.6389 8.36346 56.46 6.55442 54.9495 5.04386C53.4389 3.53331 51.6299 2.35446 49.6379 1.58263C47.3068 0.707543 44.844 0.234367 42.3545 0.183252C39.1493 0.0399824 38.1331 0 29.9967 0C21.8603 0 20.8174 2.23418e-07 17.6355 0.183252C15.1471 0.234743 12.6855 0.707912 10.3554 1.58263C8.36314 2.35392 6.55382 3.53258 5.0432 5.0432C3.53258 6.55382 2.35392 8.36314 1.58263 10.3554C0.70579 12.6848 0.23364 15.147 0.186584 17.6355C0.0433141 20.8441 0 21.8603 0 29.9967C0 38.1331 -2.48242e-08 39.1726 0.186584 42.3578C0.236562 44.8501 0.706352 47.309 1.58263 49.6446C2.35521 51.6363 3.53475 53.4448 5.04588 54.9548C6.55701 56.4648 8.36649 57.643 10.3587 58.414C12.6825 59.3243 15.1445 59.8313 17.6388 59.9134C20.8474 60.0566 21.8636 60.1 30 60.1C38.1364 60.1 39.1793 60.1 42.3612 59.9134C44.8506 59.8644 47.3135 59.3923 49.6446 58.5173C51.636 57.7446 53.4446 56.5654 54.955 55.055C56.4655 53.5446 57.6447 51.736 58.4174 49.7446C59.2937 47.4123 59.7634 44.9534 59.8134 42.4578C59.9567 39.2526 60 38.2363 60 30.0966C59.9933 21.9602 59.9933 20.9274 59.8068 17.7388ZM29.9767 45.3832C21.4671 45.3832 14.5735 38.4896 14.5735 29.98C14.5735 21.4705 21.4671 14.5769 29.9767 14.5769C34.0619 14.5769 37.9797 16.1997 40.8684 19.0883C43.757 21.977 45.3798 25.8948 45.3798 29.98C45.3798 34.0652 43.757 37.983 40.8684 40.8717C37.9797 43.7603 34.0619 45.3832 29.9767 45.3832ZM45.9929 17.5988C45.5211 17.5993 45.0538 17.5067 44.6179 17.3263C44.1819 17.146 43.7858 16.8814 43.4522 16.5478C43.1186 16.2142 42.854 15.8181 42.6737 15.3821C42.4933 14.9462 42.4007 14.4789 42.4012 14.0071C42.4012 13.5357 42.494 13.0688 42.6744 12.6332C42.8549 12.1977 43.1193 11.8019 43.4527 11.4685C43.786 11.1352 44.1818 10.8707 44.6174 10.6903C45.0529 10.5099 45.5198 10.417 45.9912 10.417C46.4627 10.417 46.9295 10.5099 47.3651 10.6903C47.8007 10.8707 48.1964 11.1352 48.5298 11.4685C48.8632 11.8019 49.1276 12.1977 49.308 12.6332C49.4884 13.0688 49.5813 13.5357 49.5813 14.0071C49.5813 15.9929 47.9753 17.5988 45.9929 17.5988Z" fill="white"/>
<path d="M29.9767 39.986C35.5027 39.986 39.9823 35.5063 39.9823 29.9804C39.9823 24.4545 35.5027 19.9749 29.9767 19.9749C24.4508 19.9749 19.9712 24.4545 19.9712 29.9804C19.9712 35.5063 24.4508 39.986 29.9767 39.986Z" fill="white"/>
</svg>
