<svg width="39" height="40" viewBox="0 0 39 40" fill="none" xmlns="http://www.w3.org/2000/svg">
<path d="M38.9766 9.0505C38.9921 9.1047 39 9.1608 39 9.21717V17.7989C39 18.0239 38.8779 18.2323 38.6838 18.3423L31.4516 22.4923V30.7157C31.4514 30.8258 31.4222 30.9338 31.3671 31.0292C31.3119 31.1245 31.2326 31.2038 31.1371 31.2591L16.037 39.9158C16.002 39.9349 15.965 39.95 15.9266 39.9608C15.9132 39.9642 15.8998 39.9742 15.8864 39.9775C15.7815 40.0075 15.6702 40.0075 15.5652 39.9775C15.5468 39.9742 15.5317 39.9642 15.515 39.9575C15.4816 39.9442 15.4447 39.9342 15.4113 39.9158L0.316189 31.2591C0.220161 31.2042 0.140359 31.1251 0.0848417 31.0297C0.0293248 30.9343 5.91386e-05 30.826 0 30.7157V4.95712C0 4.90212 0.00836479 4.84712 0.0234214 4.79379C0.0284403 4.77379 0.040151 4.76045 0.0468428 4.74045C0.0569064 4.7072 0.0697784 4.67487 0.0853209 4.64378C0.0920127 4.62212 0.110415 4.60712 0.123799 4.58878L0.179007 4.51378C0.199082 4.49712 0.22083 4.48378 0.240906 4.46878C0.264327 4.44878 0.286076 4.42878 0.309497 4.41211H0.31117L7.86123 0.083735C7.9566 0.0288792 8.06479 0 8.17491 0C8.28504 0 8.39322 0.0288792 8.48859 0.083735L16.037 4.41211H16.0403C16.0654 4.42878 16.0855 4.44711 16.1072 4.46712L16.1708 4.51212C16.1926 4.53545 16.2043 4.56212 16.226 4.58712C16.2394 4.60545 16.2595 4.62212 16.2678 4.64212C16.2846 4.67545 16.2963 4.70545 16.308 4.73878C16.313 4.75712 16.3247 4.77379 16.3297 4.79212C16.3465 4.84379 16.3532 4.89879 16.3532 4.95545V21.0423L22.6435 17.4356V9.21216C22.6435 9.15716 22.6502 9.10216 22.6652 9.04883C22.6703 9.03216 22.682 9.0155 22.687 8.9955C22.6982 8.96188 22.7116 8.92903 22.7271 8.89716C22.7388 8.87716 22.7572 8.86383 22.769 8.84216C22.789 8.81716 22.8041 8.79216 22.8242 8.77049C22.8442 8.75049 22.866 8.73716 22.8861 8.72383C22.9095 8.70716 22.9296 8.68549 22.9547 8.67049H22.9563L30.5064 4.34045C30.6018 4.28559 30.7099 4.25671 30.8201 4.25671C30.9302 4.25671 31.0384 4.28559 31.1338 4.34045L38.6838 8.67049C38.7106 8.68716 38.729 8.70549 38.7541 8.72216C38.7742 8.73883 38.7959 8.75216 38.8143 8.76883C38.8361 8.79216 38.8511 8.81883 38.8712 8.84216C38.8846 8.86216 38.903 8.87716 38.9113 8.89716C38.9283 8.92896 38.9418 8.96249 38.9515 8.99716C38.9615 9.01383 38.9716 9.03216 38.9766 9.0505ZM37.7386 17.4373V10.2988L35.0987 11.8122L31.4483 13.9055V21.044L37.7386 17.4373ZM30.1935 30.3541V23.209L26.6017 25.2507L16.3532 31.0807V38.2891L30.1935 30.3541ZM1.25305 6.04047V30.3541L15.0934 38.2891V31.0807L7.8629 27.0057L7.85956 27.0007H7.85621C7.83279 26.984 7.81439 26.9657 7.78929 26.949C7.77089 26.9324 7.74914 26.919 7.73074 26.904L7.72907 26.9007C7.70732 26.8807 7.69393 26.859 7.67721 26.834C7.66048 26.8157 7.64207 26.7973 7.63036 26.774H7.62702C7.61363 26.7507 7.60527 26.7224 7.59356 26.6957C7.58352 26.669 7.57014 26.6507 7.56344 26.624C7.55712 26.5926 7.55265 26.5609 7.55006 26.529C7.54671 26.5057 7.54002 26.484 7.54002 26.4607V9.64884L3.89297 7.55381L1.25305 6.04047ZM8.17407 1.35042L1.88375 4.95712L8.17407 8.56382L14.4611 4.95712L8.17407 1.35042ZM11.4464 23.859L15.0968 21.7656V6.04047L12.4535 7.55715L8.80311 9.64884V25.374L11.4464 23.859ZM30.8209 5.60879L24.5306 9.21383L30.8209 12.8189L37.1096 9.21216L30.8209 5.60879ZM30.1919 13.9055L26.5432 11.8122L23.8999 10.3005V17.4389L27.5503 19.5323L30.1935 21.0456L30.1919 13.9055ZM15.7208 29.9957L24.9455 24.749L29.5562 22.129L23.2708 18.5239L16.0386 22.6723L9.44552 26.4557L15.7208 29.9957Z" fill="white"/>
</svg>
