<svg width="100" height="52" viewBox="0 0 100 52" fill="none" xmlns="http://www.w3.org/2000/svg">
<path d="M25.1788 2.49572C25.5333 1.8927 25.9943 1.31342 26.6567 1.02934C26.9285 0.982245 27.2003 1.00598 27.4722 1.00598H40.856C40.4659 1.33678 40.0876 1.67983 39.8277 2.12893C39.1419 3.25226 38.6806 4.50538 38.2552 5.7585C37.0492 9.54237 36.2096 13.4319 35.3937 17.3218C35.0259 19.0841 34.6752 20.8498 34.3416 22.6188C33.3247 28.3886 32.2726 34.1461 30.9601 39.8566C30.3337 42.4934 29.6951 45.1298 28.7257 47.6717C28.2762 48.7242 27.839 49.8471 26.976 50.6274C26.775 50.805 26.574 51.0294 26.2899 50.9942H14.467C13.6629 50.9704 12.8708 51.0413 12.0668 50.9586C12.599 50.5451 13.0718 50.0481 13.3792 49.457C14.266 47.7662 14.8215 45.9338 15.3537 44.1129C16.1814 41.1809 16.843 38.2133 17.4702 35.2457C17.8603 33.295 18.3213 31.3558 18.605 29.3932C18.9243 27.2059 19.409 25.0423 19.7991 22.8669C20.414 19.6627 21.0641 16.4589 21.7855 13.2784C22.3647 10.7955 22.9559 8.32409 23.748 5.90055C24.1386 4.73013 24.5635 3.57157 25.1788 2.49572Z" fill="white" stroke="white" stroke-width="0.094"/>
<path d="M40.8564 1.00601C41.1991 1.00601 41.5417 0.994139 41.8848 1.00601C42.6413 1.40802 43.28 2.04626 43.6345 2.83841C44.1073 3.73699 44.4979 4.68306 44.852 5.65247C46.0347 9.30579 46.8387 13.0655 47.6427 16.8134C48.328 20.1712 48.9789 23.5408 49.5934 26.9222C49.6409 27.0995 49.5819 27.348 49.8182 27.3951C48.9667 31.8405 48.1274 36.2979 47.0634 40.7081C46.4838 43.0846 45.8689 45.4491 44.9944 47.7429C44.5212 48.8896 44.0365 50.1427 43.0315 50.959C42.3932 51.1006 41.9319 50.6159 41.5421 50.1783C40.8683 49.3153 40.454 48.2984 40.052 47.2815C38.7158 43.6405 37.9003 39.8451 37.0729 36.0616C36.4462 33.1174 35.8902 30.1502 35.311 27.1945C35.0506 25.6925 34.6965 24.2146 34.4955 22.7134C34.4599 22.6896 34.3768 22.6422 34.3416 22.6188C34.6752 20.8498 35.0259 19.0841 35.3937 17.3219C36.2096 13.4319 37.0492 9.54202 38.2552 5.75891C38.6806 4.50541 39.1419 3.25229 39.8276 2.12934C40.088 1.67985 40.4659 1.3368 40.856 1.00601H40.8564Z" fill="#A7A7A7" stroke="#A7A7A7" stroke-width="0.094"/>
<path d="M55.6466 3.05117C56.0727 2.23566 56.5926 1.32521 57.515 1.01777C62.2089 0.994028 66.9028 1.0059 71.5964 1.0059C71.1588 1.44313 70.6978 1.88075 70.4019 2.43629C69.4918 4.06806 68.9596 5.87711 68.4159 7.66241C67.0208 12.5807 66.0395 17.6055 65.1053 22.6302C64.2423 27.5845 63.32 32.538 62.2679 37.4686C61.7242 39.9511 61.1564 42.4221 60.4355 44.8694C59.9741 46.3829 59.4898 47.9082 58.7329 49.3152C58.3661 49.9535 57.9403 50.6514 57.2431 50.9822C52.762 51.0178 48.2691 50.9822 43.7884 50.9937C43.5399 50.9937 43.28 50.9937 43.0315 50.9585C44.0365 50.143 44.5212 48.8895 44.9945 47.7424C45.8693 45.449 46.4838 43.0845 47.0635 40.708C48.1274 36.2978 48.9667 31.8408 49.8182 27.395C50.8466 21.6608 51.9228 15.9266 53.2942 10.2632C53.9325 7.81594 54.5474 5.33305 55.6469 3.05117H55.6466Z" fill="white" stroke="white" stroke-width="0.094"/>
<path d="M71.5964 1.00601C71.9747 1.00601 72.3648 0.994139 72.7431 1.00601C73.358 1.32532 73.7956 1.86899 74.1857 2.42453C74.824 3.44142 75.226 4.58849 75.6399 5.71144C76.6211 8.72651 77.3543 11.8243 78.0282 14.9217C78.9268 19.0953 79.7071 23.2927 80.4755 27.4897C80.6646 28.4947 80.8537 29.5112 80.972 30.5285L81.1493 30.7057C80.7239 31.2969 80.5582 32.0063 80.3219 32.6802C79.5769 35.0804 79.0922 37.5633 78.6783 40.0343C78.3594 41.9731 77.9217 43.9005 77.3187 45.7685C76.8696 47.1518 76.3256 48.5232 75.4274 49.6817C75.0012 50.2377 74.422 50.663 73.7837 50.9467C72.8024 51.0532 72.2228 50.1075 71.7499 49.4099C70.7687 47.6954 70.2368 45.7803 69.6691 43.9119C67.801 36.9955 66.5831 29.9136 65.2711 22.8788C65.2665 22.8268 65.249 22.7768 65.22 22.7333C65.191 22.6899 65.1516 22.6545 65.1053 22.6303C66.0395 17.6056 67.0208 12.5808 68.4159 7.66252C68.9596 5.87722 69.4918 4.06817 70.4022 2.4364C70.6978 1.88086 71.1588 1.44324 71.5964 1.00601Z" fill="#A7A7A7" stroke="#A7A7A7" stroke-width="0.094"/>
<path d="M1 27.9036C1.30782 27.8799 1.61527 27.8328 1.93419 27.8328H14.8215C15.3652 27.9036 15.9329 27.8565 16.4533 28.0931C17.2152 28.4063 17.8802 28.9163 18.3802 29.571C18.4396 29.5354 18.546 29.4408 18.605 29.3933C18.3213 31.3559 17.8603 33.2947 17.4701 35.2458C16.8434 38.2134 16.1814 41.181 15.3537 44.113C14.8215 45.9339 14.2659 47.7663 13.3792 49.4571C13.0718 50.0482 12.5989 50.5448 12.0668 50.9587C11.8658 50.9943 11.7122 50.8522 11.5464 50.7458C10.9909 50.3913 10.6716 49.7764 10.3289 49.2208C8.70902 45.5319 8.53175 41.4529 7.52672 37.5985C7.01828 35.6716 6.39153 33.7561 5.46958 31.9827C4.90179 30.9183 4.20459 29.9018 3.29414 29.0859C2.62029 28.5422 1.83963 28.1046 1.00038 27.9036H1Z" fill="#A7A7A7" stroke="#A7A7A7" stroke-width="0.094"/>
<path d="M82.1899 29.1334C82.9346 28.2938 84.046 27.762 85.1694 27.809H94.8643C96.212 27.8328 97.5716 27.7619 98.9196 27.8446C98.5176 28.1165 98.0329 28.2229 97.6072 28.4477C96.1293 29.1215 94.8643 30.2445 94.0603 31.6515C92.7716 33.8982 92.3221 36.4756 91.9438 39.0056C91.5655 41.4885 91.5774 44.0541 90.7734 46.4661C90.2297 48.1569 89.402 49.8591 87.9712 50.9706C83.5261 51.018 79.0803 50.9824 74.6467 50.9943C74.3511 50.9943 74.0674 51.0058 73.7837 50.9468C74.4219 50.6635 75.0012 50.2377 75.427 49.6818C76.3255 48.5233 76.8696 47.1518 77.3187 45.7685C77.9217 43.9002 78.3593 41.9732 78.6783 40.0344C79.0921 37.5633 79.5768 35.0801 80.3219 32.6803C80.5581 32.0064 80.7239 31.297 81.1493 30.7058C81.5042 30.1855 81.7404 29.5825 82.1899 29.1334Z" fill="white" stroke="white" stroke-width="0.094"/>
</svg>
