<svg width="23" height="50" viewBox="0 0 23 50" fill="none" xmlns="http://www.w3.org/2000/svg">
<path d="M21.9792 19.8437C19.3495 8.24734 13.1362 4.44497 12.4686 2.9878C11.7353 1.95435 10.9458 0 10.9458 0C10.9379 0.0406504 10.9379 0.065666 10.9301 0.106316V0.131332C10.9301 0.164165 10.9223 0.1798 10.9223 0.212633V0.245466H10.9145V0.350219H10.9067C10.9067 0.365854 10.9067 0.390869 10.8989 0.398687V0.447154C10.8989 0.462789 10.8989 0.479988 10.891 0.487805V0.528455C10.891 0.553471 10.891 0.576923 10.8832 0.594121V0.601939C10.8818 0.637836 10.8766 0.67348 10.8676 0.708255V0.72389C10.8598 0.731707 10.8598 0.739525 10.8598 0.748906V0.781739H10.8519V0.830206H10.8441V0.863039H10.8285V0.911507H10.8207V0.952158H10.8129V0.984991H10.805V1.01782H10.7972V1.05066H10.7894V1.08349H10.7816V1.10851H10.7738V1.14134H10.766V1.17417H10.7581C10.7503 1.17417 10.7503 1.18199 10.7503 1.18199V1.19762L10.7425 1.21326C10.7425 1.22889 10.7347 1.24609 10.7269 1.26173C10.7191 1.26954 10.7191 1.26954 10.7191 1.27736V1.293H10.7112V1.30863H10.6956V1.34928H10.68V1.3743H10.6721V1.38211H10.6643V1.39775H10.6565V1.42276H10.6487V1.4384H10.6331V1.46341H10.6252V1.47905H10.6174V1.49468H10.6096V1.5197H10.6018V1.53533H10.594V1.54315H10.5862V1.55879H10.5705V1.5838H10.5627V1.59162H10.5549V1.60725H10.5471V1.63227H10.5393V1.64009H10.5314V1.65572H10.5236V1.66354H10.5158V1.68856H10.5002V1.69637H10.4923V1.71201H10.4845V1.71982H10.4767V1.73546H10.4689V1.75109C10.4611 1.75109 10.4611 1.75891 10.4611 1.75891V1.76673H10.4533L10.4282 1.80738C10.4282 1.80738 10.4126 1.82301 10.4126 1.8324C10.4048 1.8324 10.4048 1.84021 10.4048 1.84021V1.84803H10.397V1.85585H10.3892V1.87148H10.3735V1.8793H10.3657V1.88712H10.3579V1.91057H10.3501V1.91839H10.3423V1.9262H10.3344V1.94184H10.3266V1.9262H10.311V1.93402H10.3032V1.94966H10.2954V1.96529H10.2875V1.97311H10.2797V1.98093H10.2719V1.98874H10.2641V2.00438H10.2484V2.0122H10.2406V2.02783H10.2328V2.03565H10.225V2.04346H10.2172V2.06848H10.2094V2.0763H10.2015V2.08412H10.1937V2.09193H10.1859V2.09975H10.1703V2.11538H10.1625V2.1232H10.1546V2.13102H10.1468V2.14665H10.139V2.15447H10.1234V2.16229H10.1156V2.17011H10.1077V2.18574H10.0999V2.20138H10.0921V2.20919H10.0843V2.21701H10.0686V2.22483H10.0608V2.23265H10.053V2.24828H10.0452V2.2561H10.0374V2.27173H10.0296V2.27955H10.0217V2.28737H10.0139V2.29518H10.0061V2.303H9.99047V2.31082C9.98265 2.31082 9.98265 2.31864 9.98265 2.31864L9.97484 2.32645L9.96702 2.33427V2.34991H9.9592V2.35772H9.95139V2.36554H9.94357V2.37336H9.93575L9.92012 2.38899V2.39681C9.90448 2.40463 9.90448 2.41245 9.88728 2.42964C9.88728 2.42964 9.87165 2.44528 9.86227 2.44528C9.83725 2.46091 9.80598 2.49375 9.78097 2.51876C9.76533 2.52658 9.74813 2.54378 9.7325 2.55159C9.69967 2.58443 9.66683 2.60788 9.634 2.6329C9.58553 2.68136 9.5355 2.7142 9.47922 2.76266H9.4714L9.08835 3.09725H9.08053C8.73031 3.40682 8.31442 3.8055 7.84225 4.27767L7.8016 4.31832C4.96702 7.24984 0.497031 13.3646 0.0326782 23.2427C-0.0157897 24.0572 -0.0079736 24.8546 0.0404942 25.6285V25.6442C0.268762 29.5372 1.48984 32.8596 3.02048 35.5629C3.62242 36.6385 4.28221 37.6157 4.94982 38.4944C7.24657 41.5244 9.59179 43.324 10.1859 43.7633C11.1068 45.8881 11.0239 49.5528 11.0239 49.5528L12.367 50C12.367 50 12.0902 46.4572 12.4733 44.7389C12.5952 44.2089 12.872 43.7539 13.1987 43.363C13.427 43.2083 14.079 42.7361 14.8607 42.02C14.9014 41.9794 14.9264 41.9465 14.9592 41.9059C18.1268 38.9493 24.0477 31.6698 22.0199 19.8139L21.9792 19.8437Z" fill="white"/>
</svg>
