<svg width="74" height="50" viewBox="0 0 74 50" fill="none" xmlns="http://www.w3.org/2000/svg">
<path d="M50.3222 5.06798C49.9633 5.06798 49.7241 5.11629 49.4825 5.17611V5.21292H49.5193C49.6872 5.52349 49.9633 5.76505 50.1773 6.05262C50.3452 6.37699 50.4878 6.71058 50.6443 7.03495L50.6926 6.98664C50.9802 6.78189 51.1251 6.45982 51.1251 5.9675C51.0055 5.82256 50.9802 5.66843 50.8743 5.53499C50.7547 5.33025 50.4901 5.22442 50.3222 5.06798ZM17.6958 45.5415H14.8569C14.771 41.0229 14.4954 36.5098 14.031 32.0143H14.008L9.68301 45.5415H7.51359L3.22307 32.0143H3.18626C2.85283 36.5165 2.65336 41.0275 2.58812 45.5415H0C0.140141 39.8688 0.560118 34.2064 1.2584 28.575H4.78054L8.87782 41.0371H8.90082L13.0349 28.575H16.3891C17.1322 34.7589 17.5762 40.4136 17.7073 45.5415H17.6958ZM30.013 33.0219C28.8627 39.3001 27.3282 43.8667 25.4487 46.7056C23.9625 48.898 22.3452 50 20.583 50C20.116 50 19.5409 49.8551 18.8461 49.5675V48.0583C19.1935 48.1066 19.5892 48.1412 20.0332 48.1412C20.8591 48.1412 21.5193 47.9019 22.0231 47.4579C22.6213 46.9058 22.9227 46.2846 22.9227 45.6013C22.9227 45.1228 22.6949 44.1635 22.2164 42.7027L19.113 33.0219H21.9058L24.135 40.2595C24.6389 41.9136 24.8551 43.0523 24.7585 43.7103C25.9916 40.4504 26.8428 36.88 27.3236 33.0219H30.013ZM67.8271 45.5415H59.7521V28.575H62.4714V43.4572H67.8271V45.5415ZM57.6425 45.951L54.5276 44.4166C54.8037 44.1888 55.0659 43.9381 55.3075 43.6505C56.6372 42.1045 57.2975 39.7925 57.2975 36.7488C57.2975 31.1286 55.0935 28.3265 50.6834 28.3265C48.5255 28.3265 46.8369 29.0328 45.6268 30.4591C44.3086 32.0166 43.6368 34.3172 43.6368 37.3493C43.6368 40.3331 44.2234 42.514 45.399 43.915C46.478 45.1619 48.0953 45.7969 50.2647 45.7969C51.0676 45.7969 51.8106 45.7003 52.4824 45.4978L56.5452 47.8697L57.6586 45.9533L57.6425 45.951ZM47.5431 42.139C46.8484 41.0371 46.5125 39.2633 46.5125 36.8179C46.5125 32.5411 47.8077 30.4085 50.4073 30.4085C51.7623 30.4085 52.7677 30.9238 53.4026 31.943C54.0859 33.0565 54.4333 34.8072 54.4333 37.2274C54.4333 41.5294 53.1266 43.6988 50.5384 43.6988C49.1719 43.6988 48.1781 43.1835 47.5316 42.1643L47.5431 42.139ZM42.4612 40.8461C42.4612 42.284 41.9344 43.471 40.8669 44.3798C39.8133 45.3023 38.41 45.7693 36.6247 45.7693C34.9591 45.7693 33.3648 45.2425 31.7959 44.1865L32.5275 42.7257C33.8687 43.3974 35.0788 43.7333 36.183 43.7333C37.2022 43.7333 38.0051 43.5055 38.5802 43.0615C39.1553 42.606 39.5027 41.9711 39.5027 41.1682C39.5027 40.1605 38.7964 39.2978 37.5127 38.5801C36.3257 37.9221 33.9423 36.5671 33.9423 36.5671C32.6471 35.6216 32.0121 34.6139 32.0121 32.9483C32.0121 31.5703 32.4906 30.4683 33.45 29.6286C34.4208 28.7659 35.6539 28.3472 37.1884 28.3472C38.715 28.334 40.2116 28.7717 41.4904 29.6056L40.8324 31.0665C39.8045 30.6138 38.6957 30.3736 37.5726 30.3602C36.6983 30.3602 36.0266 30.5765 35.5596 30.9952C35.0926 31.4139 34.805 31.9407 34.805 32.6009C34.805 33.6086 35.5251 34.4713 36.841 35.2121C38.0511 35.87 40.4827 37.2619 40.4827 37.2619C41.8125 38.1959 42.4727 39.2035 42.4727 40.8438L42.4612 40.8461ZM71.2319 22.8857C69.5893 22.8489 68.3194 23.0169 67.2542 23.4724C66.9552 23.592 66.4628 23.592 66.4145 23.9762C66.5825 24.1441 66.6055 24.4087 66.7504 24.6341C67.0012 25.0413 67.4222 25.5935 67.8179 25.881C68.2504 26.2169 68.6806 26.5528 69.1246 26.8404C69.9275 27.3327 70.827 27.6203 71.6161 28.1103C72.0601 28.3978 72.5156 28.7682 72.9573 29.0696C73.185 29.226 73.3277 29.5021 73.6152 29.5964V29.5366C73.4703 29.3572 73.4358 29.0926 73.2909 28.8787C73.0861 28.6739 72.8837 28.4945 72.6789 28.292C72.0789 27.4955 71.3596 26.7963 70.5463 26.2192C69.8884 25.7752 68.4505 25.1518 68.186 24.3972L68.1491 24.3489C68.5932 24.3121 69.12 24.1441 69.5502 24.0245C70.2449 23.8451 70.8914 23.8796 71.6115 23.7001C71.9418 23.6144 72.2694 23.5185 72.5938 23.4126V23.2331C72.2234 22.8627 71.9473 22.3589 71.5632 22.0115C70.5045 21.0852 69.3745 20.2436 68.1837 19.4947C67.5372 19.076 66.7228 18.8115 66.0395 18.4641C65.8003 18.3444 65.3816 18.2846 65.2482 18.0799C64.8778 17.6244 64.6615 17.0377 64.3969 16.4971C63.7952 15.3275 63.2358 14.1366 62.7198 12.9267C62.3495 12.1238 62.1332 11.3324 61.6777 10.5893C59.5681 7.10167 57.2676 4.99437 53.7454 2.92157C52.9908 2.48907 52.0798 2.30963 51.1205 2.08187C50.6052 2.05887 50.1013 2.02206 49.586 1.99905C49.2501 1.85412 48.9281 1.47223 48.6405 1.27898C47.4672 0.535902 44.4466 -1.05838 43.5954 1.05123C43.0433 2.39245 44.4098 3.69916 44.8906 4.37092C45.238 4.84943 45.682 5.37856 45.9327 5.90538C46.0777 6.26427 46.1122 6.63696 46.2571 7.00735C46.5815 7.90686 46.8921 8.9122 47.3246 9.7519C47.5523 10.1844 47.7916 10.6376 48.0792 11.0218C48.2471 11.2496 48.5347 11.3462 48.5945 11.7166C48.3069 12.1353 48.2839 12.7472 48.1275 13.251C47.3844 15.5746 47.672 18.4388 48.7141 20.1527C49.05 20.668 49.8276 21.7953 50.872 21.3628C51.7945 20.9924 51.5921 19.8283 51.8544 18.7977C51.9142 18.5469 51.8774 18.3905 51.9993 18.2225V18.2708C52.2984 18.846 52.5859 19.3981 52.8505 19.9732C53.4739 20.9809 54.5874 22.023 55.5099 22.7178C56.0022 23.0882 56.3841 23.7254 56.9961 23.9509V23.8911H56.9478C56.8166 23.7116 56.6487 23.6265 56.4808 23.4839C56.0923 23.099 55.7317 22.6869 55.4018 22.2508C54.5506 21.1005 53.7845 19.8306 53.1128 18.5239C52.7892 17.8783 52.4936 17.2189 52.227 16.5477C52.1074 16.3085 52.1074 15.9358 51.9027 15.8161C51.5921 16.2602 51.1366 16.642 50.9203 17.2057C50.5246 18.0799 50.4878 19.1703 50.3337 20.2976C50.2624 20.3206 50.2969 20.2976 50.2624 20.3459C49.6044 20.178 49.3767 19.5062 49.1351 18.9311C48.5117 17.4702 48.415 15.1329 48.9442 13.4558C49.0891 13.0233 49.6987 11.6706 49.4595 11.2634C49.3284 10.8677 48.9212 10.6399 48.7049 10.3293C48.4288 9.94514 48.1528 9.45513 47.9618 9.02262C47.4695 7.87235 47.2303 6.60245 46.6919 5.45217C46.4527 4.92535 46.0202 4.37322 45.6728 3.8832C45.2771 3.33107 44.8469 2.93768 44.5455 2.28892C44.4374 2.06117 44.2948 1.69078 44.4627 1.44922C44.4995 1.28128 44.5823 1.22147 44.7503 1.17315C45.0148 0.9454 45.7809 1.23297 46.0455 1.3641C46.8001 1.66317 47.435 1.95074 48.07 2.38324C48.3575 2.58799 48.6681 2.96988 49.0408 3.07801H49.4733C50.1313 3.22294 50.8628 3.11482 51.4748 3.30576C52.5652 3.65315 53.5476 4.15697 54.4333 4.7068C57.1419 6.44555 59.3446 8.86725 60.8196 11.7281C61.0704 12.1951 61.1785 12.6276 61.4062 13.1176C61.8249 14.1367 62.3656 15.1536 62.7958 16.1244C63.226 17.0952 63.6355 18.0776 64.2566 18.8805C64.5672 19.313 65.7911 19.5384 66.3524 19.7547C66.7596 19.9456 67.3946 20.1136 67.7534 20.3298C68.4597 20.7623 69.1545 21.2523 69.8147 21.7309C70.1506 21.9586 71.1698 22.4739 71.2296 22.8811L71.2319 22.8857Z" fill="white"/>
</svg>
