<svg width="105" height="50" viewBox="0 0 105 50" fill="none" xmlns="http://www.w3.org/2000/svg">
<path d="M0.846425 49.9883H9.07665C9.25442 49.9901 9.42681 49.9273 9.56179 49.8114C9.69677 49.6955 9.78516 49.5345 9.81055 49.3582L11.6453 39.8014H18.0408C20.7179 39.8685 23.389 39.5141 25.9565 38.7512C28.0366 38.062 29.9356 36.9135 31.5132 35.3905C32.9299 34.1147 34.1179 32.605 35.0254 30.9271C35.923 29.2857 36.5597 27.5141 36.9126 25.6761C37.4696 23.7494 37.5652 21.7183 37.1918 19.7476C36.8184 17.777 35.9864 15.9222 34.7633 14.3339C33.3463 12.8916 31.6311 11.7775 29.7384 11.0699C27.8456 10.3623 25.8211 10.0784 23.8072 10.2382H8.08063C7.89198 10.2467 7.71172 10.3187 7.56902 10.4426C7.42631 10.5665 7.32952 10.735 7.29431 10.9208L0.0600979 49.0431C-0.0200326 49.2636 -0.0200326 49.5053 0.0600979 49.7258C0.160128 49.8301 0.283959 49.9085 0.420935 49.9542C0.55791 49.9999 0.703929 50.0116 0.846425 49.9883ZM15.7866 17.6421H21.0288C22.0262 17.5079 23.0402 17.5734 24.012 17.8348C24.9839 18.0962 25.8943 18.5483 26.6904 19.1649C27.5815 20.1101 27.7388 21.8954 27.267 24.4159C27.0042 26.6708 25.9442 28.757 24.279 30.297C22.2028 31.6138 19.7567 32.2217 17.3069 32.0299H13.1131L15.7866 17.6421ZM67.16 12.6536C64.322 10.5637 60.808 9.6088 57.3047 9.97561H51.0665L52.7964 0.733831C52.8475 0.627334 52.8741 0.510682 52.8741 0.392515C52.8741 0.274348 52.8475 0.157695 52.7964 0.0511985C52.6103 -0.0170662 52.406 -0.0170662 52.2198 0.0511985H43.9896C43.8118 0.0493733 43.6394 0.112247 43.5044 0.22814C43.3694 0.344033 43.281 0.505065 43.2557 0.681319L36.0214 38.8562C35.9709 38.9535 35.9445 39.0616 35.9445 39.1712C35.9445 39.2809 35.9709 39.389 36.0214 39.4863C36.0833 39.5832 36.1686 39.6629 36.2694 39.718C36.3702 39.7731 36.4833 39.8018 36.5981 39.8014H44.671C44.8569 39.8018 45.0361 39.7316 45.1723 39.6049C45.3085 39.4782 45.3917 39.3045 45.4049 39.1187L49.4414 17.7471H55.2602C57.6192 17.7471 58.458 18.2722 58.7201 18.5873C58.9335 19.1033 59.0434 19.6565 59.0434 20.2151C59.0434 20.7737 58.9335 21.3268 58.7201 21.8429L55.5224 38.8562C55.4718 38.9535 55.4454 39.0616 55.4454 39.1712C55.4454 39.2809 55.4718 39.389 55.5224 39.4863C55.5874 39.5801 55.6734 39.6574 55.7735 39.7121C55.8736 39.7667 55.9851 39.7973 56.099 39.8014H64.2768C64.4654 39.7929 64.6457 39.7208 64.7884 39.5969C64.9311 39.4731 65.0279 39.3046 65.0631 39.1187L68.4181 21.2653C68.9594 19.8416 69.128 18.3029 68.9078 16.7955C68.6876 15.2881 68.0859 13.8622 67.16 12.6536ZM90.8546 9.97561H74.4466C74.3502 9.96846 74.2533 9.98048 74.1615 10.011C74.0697 10.0414 73.9849 10.0898 73.9118 10.1532C73.8387 10.2166 73.7789 10.2939 73.7357 10.3806C73.6926 10.4673 73.6669 10.5616 73.6603 10.6582L66.0067 49.0431C65.959 49.1506 65.9344 49.2669 65.9344 49.3845C65.9344 49.502 65.959 49.6183 66.0067 49.7258C66.0772 49.8099 66.1655 49.8771 66.2653 49.9226C66.3651 49.968 66.4738 49.9905 66.5834 49.9883H75.1281C75.3147 50.0036 75.5 49.9468 75.6462 49.8297C75.7923 49.7125 75.8883 49.5439 75.9144 49.3582L77.854 39.8014H84.5116C87.2746 39.8622 90.0311 39.5082 92.6894 38.7512C94.9783 38.1133 97.0931 36.9644 98.8752 35.3905C100.339 34.1184 101.579 32.6097 102.545 30.9271C103.459 29.2881 104.113 27.5166 104.484 25.6761C105.056 23.7477 105.154 21.7095 104.771 19.7349C104.387 17.7602 103.534 15.9074 102.283 14.3339C100.8 12.8301 99.0131 11.6628 97.0414 10.9108C95.0698 10.1589 92.96 9.83998 90.8546 9.97561ZM94.1048 24.5209C93.7912 26.7947 92.6755 28.8809 90.9595 30.402C88.8083 31.7248 86.2942 32.3314 83.7777 32.1349H79.584L82.4147 17.6421H87.6569C89.7524 17.3848 91.8677 17.9286 93.5806 19.1649C94.4193 20.1101 94.4193 21.8954 94.1048 24.5209Z" fill="white"/>
</svg>
