<svg width="41" height="50" viewBox="0 0 41 50" fill="none" xmlns="http://www.w3.org/2000/svg">
<path d="M21.4712 0C21.1488 0 20.8187 0.0171852 20.4778 0.0421818C11.7445 0.740525 14.0615 10.058 13.9313 13.1654C13.7701 15.4354 13.3114 17.2336 11.7615 19.4567C9.92809 21.6455 7.36158 25.1857 6.14341 28.8695C5.57153 30.6021 5.29566 32.3862 5.55448 34.0626C5.457 34.1354 5.37702 34.2294 5.32045 34.3375C4.78731 34.9 4.39056 35.5921 3.95506 36.0873C3.54435 36.5013 2.95542 36.6419 2.30759 36.9184C1.66286 37.2012 0.94374 37.4793 0.523737 38.3417C0.337758 38.7338 0.240119 39.1556 0.249418 39.5962C0.249418 40.0024 0.306762 40.4258 0.362555 40.7101C0.484992 41.5397 0.604329 42.224 0.443146 42.7286C-0.0729461 44.1425 -0.12874 45.1111 0.226171 45.8204C0.58728 46.5203 1.3312 46.7968 2.1619 47.0749C3.84192 47.4889 6.10932 47.3576 7.90247 48.3185C9.8134 49.2949 11.76 49.7183 13.3098 49.3043C13.8444 49.1834 14.3456 48.9441 14.7769 48.6036C15.2083 48.2631 15.5589 47.83 15.8035 47.3358C17.0139 47.328 18.3452 46.7734 20.47 46.6359C21.9145 46.5125 23.7231 47.1967 25.7968 47.0499C25.8526 47.3358 25.9254 47.4639 26.0385 47.7498V47.7576C26.8445 49.3761 28.3385 50.1088 29.9379 49.987C31.5265 49.8573 33.222 48.8731 34.5936 47.2623C35.9016 45.6751 38.073 45.0064 39.5097 44.1378C40.2288 43.7206 40.81 43.1613 40.8503 42.3552C40.8983 41.5256 40.4395 40.6632 39.381 39.4915V39.2869L39.3733 39.2791C39.0184 38.865 38.8572 38.1651 38.6712 37.3528C38.493 36.5138 38.2992 35.717 37.6545 35.1718C37.5243 35.0578 37.3957 35.0328 37.2593 34.8953C37.1448 34.8139 37.0101 34.7663 36.8703 34.7578C37.7583 32.0957 37.4112 29.4523 36.5061 27.0666C35.4088 24.1295 33.4793 21.5674 32.0178 19.8098C30.3703 17.7179 28.7569 15.7338 28.7895 12.7967C28.8453 8.31137 29.2808 0.021872 21.4681 0.00468687L21.4712 0ZM22.5607 7.09435H22.5933C23.0288 7.09435 23.4069 7.22558 23.7959 7.50211C24.1912 7.78488 24.4825 8.1942 24.6995 8.61602C24.918 9.15345 25.0327 9.56745 25.0467 10.1205C25.0467 10.0814 25.0544 10.0393 25.0544 10.0002V10.2189C25.0544 10.2017 25.0467 10.1877 25.0467 10.1705L25.0389 10.1205C25.0389 10.6267 24.9351 11.1313 24.7336 11.5937C24.6378 11.857 24.486 12.0959 24.2888 12.2936C24.233 12.2624 24.1757 12.2296 24.1106 12.2046C23.8936 12.1062 23.6999 12.0749 23.5216 11.9296C23.375 11.8704 23.2236 11.8239 23.0691 11.7906C23.1667 11.6703 23.3682 11.5141 23.4488 11.3766C23.5542 11.1157 23.61 10.8313 23.627 10.5392V10.497C23.6314 10.215 23.5874 9.93433 23.4968 9.66744C23.4085 9.39092 23.2969 9.25031 23.1264 8.97535C22.9482 8.8363 22.7793 8.69882 22.5685 8.69882H22.5375C22.3438 8.69882 22.1733 8.75506 21.9966 8.97535C21.8027 9.16806 21.6585 9.40566 21.5766 9.66744C21.464 9.92992 21.4009 10.2112 21.3906 10.497V10.5392C21.3906 10.7251 21.4077 10.9126 21.4294 11.1001C21.0264 10.9626 20.5258 10.8142 20.1709 10.6767C20.1516 10.5395 20.1407 10.4012 20.1384 10.2627V10.2205C20.1227 9.67031 20.228 9.12344 20.4468 8.61915C20.6157 8.16296 20.9226 7.77082 21.3348 7.51148C21.6882 7.24433 22.1159 7.09748 22.5607 7.09748V7.09435ZM16.442 7.21777H16.5149C16.8062 7.21777 17.0728 7.3162 17.3394 7.4943C17.6447 7.76301 17.8896 8.09578 18.0507 8.46135C18.2367 8.87848 18.3406 9.3003 18.3731 9.85335V9.86116C18.3809 10.1377 18.3808 10.2861 18.3654 10.4158V10.5861L18.1964 10.6345C17.8818 10.7485 17.6323 10.911 17.3797 11.0516C17.4045 10.8642 17.4045 10.6767 17.3874 10.497V10.4642C17.3642 10.1892 17.3068 10.0502 17.2185 9.77211C17.1523 9.55827 17.0328 9.36515 16.8713 9.21125C16.7698 9.12002 16.6367 9.07286 16.5009 9.08002H16.4513C16.3072 9.08783 16.1847 9.16126 16.0732 9.35655C15.9365 9.51496 15.8497 9.71071 15.8236 9.91897C15.7663 10.1377 15.7492 10.3736 15.774 10.6111V10.6345C15.7988 10.9204 15.8469 11.0594 15.943 11.3344C16.0053 11.5463 16.1225 11.7377 16.2824 11.889C16.3072 11.914 16.3242 11.9312 16.3552 11.9374C16.2111 12.0609 16.1135 12.0859 15.9941 12.2233C15.912 12.2811 15.8252 12.3546 15.7198 12.3718C15.5049 12.1111 15.3154 11.8302 15.1541 11.5328C14.9564 11.0949 14.8468 10.6217 14.8317 10.1408C14.8005 9.67078 14.8551 9.19895 14.9929 8.74881C15.1154 8.34262 15.3091 7.95986 15.5819 7.6349C15.8484 7.35838 16.115 7.2209 16.4451 7.2209L16.442 7.21777ZM19.2751 10.7735C19.9617 10.7735 20.7862 10.9032 21.7858 11.6031C22.3918 12.0202 22.8692 12.1655 23.9664 12.5717C24.4996 12.8576 24.8049 13.1342 24.9583 13.4107V13.1342C25.0319 13.2851 25.0729 13.45 25.0785 13.6181C25.0841 13.7861 25.0542 13.9535 24.9909 14.109C24.732 14.7605 23.9246 15.4526 22.7886 15.8666V15.8744C22.2384 16.1509 21.7548 16.5665 21.1891 16.843C20.6173 17.1196 19.9694 17.4539 19.0984 17.3976C18.783 17.4116 18.4678 17.3644 18.1701 17.2586C17.9405 17.1357 17.7194 16.9974 17.5083 16.8446C17.1053 16.5681 16.7582 16.1525 16.2421 15.876V15.8682H16.2343C15.4021 15.3557 14.9588 14.8011 14.8131 14.3871C14.6768 13.8263 14.8054 13.4122 15.2177 13.1357C15.6764 12.8592 15.9988 12.5733 16.2095 12.4358C16.4265 12.2811 16.5087 12.2233 16.5738 12.1671H16.5815V12.1593C16.9287 11.7359 17.4758 11.1829 18.3173 10.9048C18.5978 10.8313 18.9233 10.7751 19.2766 10.7751L19.2751 10.7735ZM25.0544 15.2307C25.7983 18.185 27.5341 22.4735 28.6485 24.5482C29.2374 25.6621 30.4153 28.0056 30.9236 30.8474C31.246 30.8396 31.6009 30.8864 31.9821 30.9849C33.3212 27.5025 30.8601 23.7593 29.738 22.7172C29.2777 22.3032 29.2544 22.0251 29.4792 22.0251C30.6989 23.1312 32.2952 25.2981 32.8764 27.7619C33.143 28.8758 33.2096 30.0662 32.926 31.2442C33.0624 31.3004 33.2003 31.3739 33.346 31.3817C35.477 32.4987 36.2674 33.3361 35.8877 34.5875V34.4985C35.7684 34.4922 35.6382 34.4985 35.5173 34.4985H35.4847C35.8009 33.5236 35.1066 32.7737 33.2824 31.9441C31.3932 31.1145 29.8837 31.2442 29.6249 32.9127C29.6066 33.007 29.5962 33.1026 29.5939 33.1986C29.4466 33.2471 29.3025 33.3033 29.1584 33.3283C28.2703 33.8907 27.793 34.7281 27.5202 35.803C27.2536 36.9169 27.173 38.2104 27.1002 39.7009C27.0506 40.4008 26.7453 41.4491 26.4369 42.5146C23.3372 44.7518 19.0349 45.7204 15.3881 43.2145C15.1526 42.8083 14.8782 42.4333 14.5559 42.1005C14.4011 41.842 14.2083 41.6086 13.984 41.4085C14.3621 41.4085 14.6861 41.3444 14.9449 41.2694C15.2405 41.1259 15.4729 40.8771 15.5974 40.5711C15.8159 40.0165 15.5974 39.1213 14.8782 38.1448C14.17 37.1778 12.958 36.0779 11.1897 34.9812C9.88315 34.1516 9.14853 33.1674 8.80912 32.0753C8.4697 30.9614 8.51775 29.8132 8.77657 28.6508C9.28491 26.4214 10.5852 24.2498 11.4175 22.8891C11.6345 22.7594 11.4903 23.175 10.5697 24.9247C9.75296 26.487 8.21243 30.124 10.3171 32.9471C10.398 30.8853 10.8523 28.8558 11.6577 26.9588C12.8185 24.2983 15.2579 19.6614 15.4517 15.9838C15.5493 16.065 15.8965 16.2697 16.0484 16.4072C16.4932 16.6837 16.831 17.0992 17.2681 17.3758C17.7036 17.7898 18.2522 18.0757 19.0767 18.0757C19.1573 18.0835 19.2302 18.0835 19.3014 18.0835C20.1492 18.0835 20.8125 17.807 21.3596 17.5289C21.9563 17.243 22.4429 16.829 22.8924 16.6915H22.9001C23.861 16.415 24.6282 15.8525 25.056 15.2339L25.0544 15.2307ZM29.5753 33.8907C29.6558 35.1421 30.2866 36.4857 31.3994 36.7606C32.6098 37.0372 34.3611 36.0686 35.0957 35.1671L35.5312 35.1499C36.1837 35.1327 36.7262 35.1671 37.281 35.7045L37.2887 35.7123C37.7165 36.1264 37.9195 36.8185 38.0962 37.5355C38.2744 38.3729 38.4108 39.1619 38.944 39.7556C39.9436 40.8538 40.2753 41.6428 40.2598 42.1318C40.2272 42.6755 39.8708 42.952 39.226 43.3676C37.9257 44.2065 35.618 44.8486 34.1488 46.6406C32.8717 48.1778 31.3157 49.0152 29.941 49.1215C28.5694 49.2355 27.3822 48.7075 26.6879 47.2514L26.6802 47.2436C26.2447 46.4125 26.4307 45.1111 26.7933 43.7269C27.1575 42.3349 27.6814 40.921 27.7542 39.7727C27.827 38.2839 27.9076 36.9903 28.1494 35.9873C28.3989 35.0187 28.7879 34.3266 29.4823 33.9454L29.5706 33.8954L29.5753 33.8907ZM7.22364 33.9954H7.24844C7.36158 33.9954 7.46697 34.0032 7.5708 34.0282C8.34572 34.1423 9.03229 34.7203 9.68632 35.5905L11.5663 39.0572L11.574 39.065C12.0746 40.1711 13.1316 41.2772 14.0274 42.4755C14.9247 43.7191 15.6191 44.833 15.5385 45.7454V45.7626C15.416 47.3077 14.545 48.145 13.2137 48.4559C11.8809 48.7325 10.0722 48.4559 8.26513 47.4873C6.2643 46.3734 3.88221 46.5109 2.35718 46.2328C1.59932 46.0953 1.09872 45.8094 0.86315 45.3954C0.638425 44.9814 0.629126 44.1409 1.12197 42.8317V42.8255C1.36374 42.1255 1.18861 41.2553 1.06618 40.4898C0.95304 39.6587 0.897246 39.015 1.15452 38.5354C1.48463 37.8355 1.97748 37.7058 2.58191 37.4215C3.18789 37.145 3.90701 37.0075 4.47115 36.4451H4.4789V36.4373C5.00429 35.8858 5.40104 35.1937 5.85979 34.6953C6.2488 34.2719 6.64246 33.9954 7.22364 33.9954ZM22.0214 15.0933C21.124 15.5073 20.0671 16.2072 18.945 16.2072C17.8229 16.2072 16.9426 15.6557 16.3056 15.2386C15.9833 14.9558 15.7244 14.6777 15.5307 14.5387C15.1913 14.2637 15.2316 13.8403 15.3773 13.8403C15.602 13.8716 15.6439 14.1231 15.788 14.2637C15.991 14.4012 16.2328 14.6777 16.5304 14.9558C17.1363 15.3698 17.9438 15.9307 18.9434 15.9307C19.9462 15.9307 21.124 15.3698 21.8339 14.9558C22.2368 14.6793 22.7529 14.2637 23.1729 13.9872C23.4953 13.7013 23.4813 13.4247 23.7448 13.4247C24.0114 13.4576 23.8192 13.7013 23.4472 14.1168C23.0675 14.4027 22.4863 14.8167 22.0198 15.0933H22.0214ZM19.785 11.7906V11.7515C19.7772 11.7094 19.8082 11.6625 19.8485 11.6453C19.9927 11.5562 20.2189 11.5875 20.3817 11.6531C20.5103 11.6531 20.7118 11.7906 20.6963 11.9359C20.6792 12.0343 20.5181 12.0749 20.4127 12.0749C20.3011 12.0749 20.2189 11.9859 20.1229 11.9296C20.0175 11.8968 19.8144 11.9124 19.7834 11.7906H19.785ZM18.6459 11.7906C18.604 11.914 18.4103 11.8968 18.3065 11.9296C18.2088 11.9859 18.1282 12.0749 18.0151 12.0749C17.9097 12.0749 17.7408 12.0327 17.7315 11.9296C17.7175 11.7906 17.9097 11.6531 18.0399 11.6531C18.2088 11.5859 18.418 11.5547 18.5792 11.6453C18.6118 11.6625 18.6536 11.7094 18.6366 11.7515V11.7906H18.6459Z" fill="white"/>
</svg>
