<svg width="70" height="54" viewBox="0 0 70 54" fill="none" xmlns="http://www.w3.org/2000/svg">
<path d="M0 53.3699H7.11599C7.11599 49.5954 8.61543 45.9754 11.2844 43.3064C13.9535 40.6374 17.5734 39.138 21.348 39.138C25.1225 39.138 28.7425 40.6374 31.4115 43.3064C34.0805 45.9754 35.58 49.5954 35.58 53.3699H42.6959C42.6959 47.7081 40.4468 42.2782 36.4433 38.2747C32.4397 34.2711 27.0098 32.022 21.348 32.022C15.6861 32.022 10.2562 34.2711 6.25268 38.2747C2.24915 42.2782 8.43679e-08 47.7081 0 53.3699Z" fill="white"/>
<path d="M7.11597 14.232C7.11597 10.4574 8.6154 6.83746 11.2844 4.16845C13.9534 1.49944 17.5734 0 21.3479 0C25.1225 0 28.7425 1.49944 31.4115 4.16845C34.0805 6.83746 35.5799 10.4574 35.5799 14.232C35.5799 18.0065 34.0805 21.6265 31.4115 24.2955C28.7425 26.9645 25.1225 28.464 21.3479 28.464C17.5734 28.464 13.9534 26.9645 11.2844 24.2955C8.6154 21.6265 7.11597 18.0065 7.11597 14.232ZM14.2391 14.1288C14.2034 16.0025 14.9083 17.8147 16.2007 19.1718C17.4932 20.5289 19.2688 21.3214 21.1421 21.3772C23.0153 21.4329 24.8349 20.7475 26.2058 19.4696C27.5767 18.1918 28.3881 16.4247 28.4639 14.5522V14.232C28.4204 12.3831 27.6589 10.6239 26.3406 9.32685C25.0223 8.02984 23.2508 7.297 21.4015 7.28359C19.5522 7.27017 17.7703 7.97724 16.4334 9.25498C15.0964 10.5327 14.3094 12.2808 14.2391 14.1288Z" fill="white"/>
<path d="M58.1341 39.1379C57.3271 38.4304 56.5062 37.7388 55.672 37.0636L55.5048 36.9284L55.4834 36.9142C51.3704 33.559 46.254 29.3819 46.254 24.1908C46.2542 23.3382 46.4247 22.4943 46.7554 21.7086C47.0861 20.9228 47.5704 20.2109 48.1798 19.6147C48.7893 19.0186 49.5116 18.5501 50.3045 18.2367C51.0973 17.9234 51.9448 17.7715 52.7971 17.79C53.8037 17.7872 54.7995 17.9973 55.7192 18.4062C56.639 18.8152 57.4619 19.4139 58.1341 20.1631C58.8065 19.4141 59.6294 18.8155 60.5492 18.4065C61.4689 17.9976 62.4646 17.7875 63.4711 17.79C64.3226 17.7734 65.1688 17.9268 65.9602 18.2412C66.7517 18.5557 67.4725 19.0248 68.0804 19.6212C68.6884 20.2175 69.1713 20.9291 69.5009 21.7144C69.8305 22.4996 70.0002 23.3427 70 24.1943C70 29.4068 64.8409 33.6124 60.6959 36.996L60.6852 37.0031L60.4824 37.1704L60.4184 37.2237C59.6 37.8962 58.8244 38.5295 58.1306 39.145L58.1341 39.1344V39.1379Z" fill="white"/>
</svg>
