<svg width="39" height="40" viewBox="0 0 39 40" fill="none" xmlns="http://www.w3.org/2000/svg">
<path d="M19.5801 2.99511e-05C11.9396 -0.01361 4.74808 4.63249 1.44767 11.9867L10.7278 12.0094V13.0502C7.87024 12.6975 8.12186 14.2193 8.52639 15.8344L14.6184 31.4915L19.096 20.7279L17.0405 15.6836C16.2938 14.3325 16.2781 12.8336 13.2235 12.9748L13.2664 12.0156L26.8771 12.0496V13.1244C25.2831 13.2202 23.3644 12.7134 24.3815 16.0607L29.8863 30.8894L32.8955 22.2325C33.8809 18.6036 32.9535 15.1162 31.7826 11.6964C31.1313 9.40218 31.435 7.48623 34.3542 6.7262C29.8984 2.06202 24.6408 0.00906991 19.5803 2.99511e-05H19.5801ZM38.0913 13.69L29.2672 37.2774C31.7041 35.113 34.2027 34.3252 37.2603 28.3364C39.2946 23.3552 39.0852 18.7406 38.0913 13.6899V13.69ZM0.513645 14.0721C-0.347635 21.0354 -0.268844 23.075 1.8632 28.7613C4.64234 34.2075 6.79747 35.3549 9.85628 37.4911L0.513606 14.0721H0.513645ZM19.9246 22.9075L13.3852 39.0875C17.9754 40.431 22.0826 40.2629 25.8425 38.7682L19.9246 22.9074V22.9075Z" fill="white"/>
</svg>
